<svg width="35" height="35" viewBox="0 0 35 35" fill="none" xmlns="http://www.w3.org/2000/svg">
<circle cx="17.5" cy="17.5" r="17.5" fill="white"/>
<circle cx="17.5" cy="17.5" r="14.5" stroke="black"/>
<path d="M18.16 20V11.444L10.936 11.42C9.984 11.42 9.28 11.62 8.824 12.02C8.36 12.412 8.128 13.004 8.128 13.796C8.128 14.588 8.392 15.168 8.92 15.536C8.568 15.728 8.308 15.984 8.14 16.304C7.972 16.616 7.888 17.02 7.888 17.516C7.888 18.324 8.12 18.94 8.584 19.364C9.04 19.78 9.744 19.988 10.696 19.988L18.16 20ZM11.164 12.956H16.24V14.876H11.164C10.436 14.876 10.072 14.548 10.072 13.892C10.072 13.268 10.436 12.956 11.164 12.956ZM10.924 16.412H16.24V18.452H10.924C10.196 18.452 9.832 18.108 9.832 17.42C9.832 16.748 10.196 16.412 10.924 16.412Z" fill="black"/>
<path d="M18.16 20H18.66V20.5008L18.1592 20.5L18.16 20ZM18.16 11.444L18.1617 10.944L18.66 10.9457V11.444H18.16ZM10.936 11.42L10.936 10.92L10.9377 10.92L10.936 11.42ZM8.824 12.02L9.15378 12.3959L9.14668 12.4019L8.824 12.02ZM8.92 15.536L9.2059 15.1258L9.86895 15.5879L9.15943 15.9749L8.92 15.536ZM8.14 16.304L8.58272 16.5364L8.58024 16.541L8.14 16.304ZM8.584 19.364L8.24702 19.7334L8.24671 19.7331L8.584 19.364ZM10.696 19.988L10.696 19.488L10.6968 19.488L10.696 19.988ZM16.24 12.956V12.456H16.74V12.956H16.24ZM16.24 14.876H16.74V15.376H16.24V14.876ZM16.24 16.412V15.912H16.74V16.412H16.24ZM16.24 18.452H16.74V18.952H16.24V18.452ZM17.66 20V11.444H18.66V20H17.66ZM18.1583 11.944L10.9343 11.92L10.9377 10.92L18.1617 10.944L18.1583 11.944ZM10.936 11.92C10.0395 11.92 9.47891 12.1106 9.15372 12.3959L8.49428 11.6441C9.08109 11.1294 9.92845 10.92 10.936 10.92V11.92ZM9.14668 12.4019C8.82718 12.6719 8.628 13.1033 8.628 13.796H7.628C7.628 12.9047 7.89282 12.1521 8.50132 11.6381L9.14668 12.4019ZM8.628 13.796C8.628 14.4671 8.84357 14.8733 9.2059 15.1258L8.6341 15.9462C7.94043 15.4627 7.628 14.7089 7.628 13.796H8.628ZM9.15943 15.9749C8.88423 16.1251 8.69986 16.3132 8.5827 16.5364L7.6973 16.0716C7.91614 15.6548 8.25176 15.3309 8.68057 15.0971L9.15943 15.9749ZM8.58024 16.541C8.464 16.7569 8.388 17.0715 8.388 17.516H7.388C7.388 16.9685 7.48 16.4751 7.69976 16.0669L8.58024 16.541ZM8.388 17.516C8.388 18.2261 8.58868 18.691 8.92129 18.9949L8.24671 19.7331C7.65132 19.189 7.388 18.4219 7.388 17.516H8.388ZM8.92098 18.9946C9.24598 19.2911 9.80349 19.488 10.696 19.488V20.488C9.68451 20.488 8.83402 20.2689 8.24702 19.7334L8.92098 18.9946ZM10.6968 19.488L18.1608 19.5L18.1592 20.5L10.6952 20.488L10.6968 19.488ZM11.164 12.456H16.24V13.456H11.164V12.456ZM16.74 12.956V14.876H15.74V12.956H16.74ZM16.24 15.376H11.164V14.376H16.24V15.376ZM11.164 15.376C10.735 15.376 10.32 15.2805 10.0103 15.0014C9.69072 14.7135 9.572 14.3113 9.572 13.892H10.572C10.572 14.1287 10.6353 14.2185 10.6797 14.2586C10.734 14.3075 10.865 14.376 11.164 14.376V15.376ZM9.572 13.892C9.572 13.4811 9.69546 13.0882 10.0196 12.8104C10.329 12.5452 10.7402 12.456 11.164 12.456V13.456C10.8598 13.456 10.725 13.5228 10.6704 13.5696C10.6305 13.6038 10.572 13.6789 10.572 13.892H9.572ZM10.924 15.912H16.24V16.912H10.924V15.912ZM16.74 16.412V18.452H15.74V16.412H16.74ZM16.24 18.952H10.924V17.952H16.24V18.952ZM10.924 18.952C10.4898 18.952 10.0711 18.8499 9.76157 18.5574C9.44673 18.2599 9.332 17.8485 9.332 17.42H10.332C10.332 17.6795 10.3993 17.7841 10.4484 17.8306C10.5029 17.8821 10.6302 17.952 10.924 17.952V18.952ZM9.332 17.42C9.332 16.9962 9.44864 16.5894 9.76586 16.2966C10.0755 16.0108 10.4924 15.912 10.924 15.912V16.912C10.6276 16.912 10.4985 16.9812 10.4441 17.0314C10.3974 17.0746 10.332 17.1718 10.332 17.42H9.332Z" fill="black"/>
<path d="M21.256 24.06C19.672 24.06 18.46 23.696 17.62 22.968C16.78 22.232 16.36 21.144 16.36 19.704C16.36 18.272 16.78 17.188 17.62 16.452C18.46 15.716 19.672 15.352 21.256 15.36L25.576 15.384V16.92H21.388C20.348 16.92 19.576 17.14 19.072 17.58C18.568 18.02 18.316 18.728 18.316 19.704C18.316 20.68 18.568 21.392 19.072 21.84C19.576 22.28 20.348 22.5 21.388 22.5H25.696V24.06H21.256Z" fill="black"/>
<path d="M17.62 22.968L17.2905 23.3441L17.2925 23.3458L17.62 22.968ZM17.62 16.452L17.2905 16.0759L17.62 16.452ZM21.256 15.36L21.2588 14.86L21.2585 14.86L21.256 15.36ZM25.576 15.384H26.076V14.8868L25.5788 14.884L25.576 15.384ZM25.576 16.92V17.42H26.076V16.92H25.576ZM19.072 17.58L19.4008 17.9567L19.4008 17.9567L19.072 17.58ZM19.072 21.84L18.7398 22.2137L18.7432 22.2167L19.072 21.84ZM25.696 22.5H26.196V22H25.696V22.5ZM25.696 24.06V24.56H26.196V24.06H25.696ZM21.256 23.56C19.7418 23.56 18.6646 23.2116 17.9475 22.5902L17.2925 23.3458C18.2554 24.1804 19.6022 24.56 21.256 24.56V23.56ZM17.9495 22.5919C17.2474 21.9767 16.86 21.0445 16.86 19.704H15.86C15.86 21.2435 16.3126 22.4873 17.2905 23.3441L17.9495 22.5919ZM16.86 19.704C16.86 18.3726 17.2468 17.4438 17.9495 16.8281L17.2905 16.0759C16.3132 16.9322 15.86 18.1714 15.86 19.704H16.86ZM17.9495 16.8281C18.6656 16.2006 19.7409 15.8524 21.2535 15.86L21.2585 14.86C19.6031 14.8516 18.2544 15.2314 17.2905 16.0759L17.9495 16.8281ZM21.2532 15.86L25.5732 15.884L25.5788 14.884L21.2588 14.86L21.2532 15.86ZM25.076 15.384V16.92H26.076V15.384H25.076ZM25.576 16.42H21.388V17.42H25.576V16.42ZM21.388 16.42C20.2911 16.42 19.3771 16.6499 18.7432 17.2033L19.4008 17.9567C19.7749 17.6301 20.4049 17.42 21.388 17.42V16.42ZM18.7432 17.2033C18.0881 17.7752 17.816 18.6513 17.816 19.704H18.816C18.816 18.8047 19.0479 18.2648 19.4008 17.9567L18.7432 17.2033ZM17.816 19.704C17.816 20.7576 18.0885 21.6347 18.7398 22.2137L19.4042 21.4663C19.0475 21.1493 18.816 20.6024 18.816 19.704H17.816ZM18.7432 22.2167C19.3771 22.7701 20.2911 23 21.388 23V22C20.4049 22 19.7749 21.7899 19.4008 21.4633L18.7432 22.2167ZM21.388 23H25.696V22H21.388V23ZM25.196 22.5V24.06H26.196V22.5H25.196ZM25.696 23.56H21.256V24.56H25.696V23.56Z" fill="black"/>
</svg>
