<svg width="31" height="31" viewBox="0 0 31 31" fill="none" xmlns="http://www.w3.org/2000/svg">
<circle cx="15.5" cy="15.5" r="14.5" stroke="white"/>
<path d="M16.16 18V9.444L8.936 9.42C7.984 9.42 7.28 9.62 6.824 10.02C6.36 10.412 6.128 11.004 6.128 11.796C6.128 12.588 6.392 13.168 6.92 13.536C6.568 13.728 6.308 13.984 6.14 14.304C5.972 14.616 5.888 15.02 5.888 15.516C5.888 16.324 6.12 16.94 6.584 17.364C7.04 17.78 7.744 17.988 8.696 17.988L16.16 18ZM9.164 10.956H14.24V12.876H9.164C8.436 12.876 8.072 12.548 8.072 11.892C8.072 11.268 8.436 10.956 9.164 10.956ZM8.924 14.412H14.24V16.452H8.924C8.196 16.452 7.832 16.108 7.832 15.42C7.832 14.748 8.196 14.412 8.924 14.412Z" fill="white"/>
<path d="M16.16 18H16.66V18.5008L16.1592 18.5L16.16 18ZM16.16 9.444L16.1617 8.944L16.66 8.94566V9.444H16.16ZM8.936 9.42L8.936 8.92L8.93766 8.92L8.936 9.42ZM6.824 10.02L7.15378 10.3959L7.14668 10.4019L6.824 10.02ZM6.92 13.536L7.2059 13.1258L7.86895 13.5879L7.15943 13.9749L6.92 13.536ZM6.14 14.304L6.58272 14.5364L6.58024 14.541L6.14 14.304ZM6.584 17.364L6.24702 17.7334L6.24671 17.7331L6.584 17.364ZM8.696 17.988L8.696 17.488L8.6968 17.488L8.696 17.988ZM14.24 10.956V10.456H14.74V10.956H14.24ZM14.24 12.876H14.74V13.376H14.24V12.876ZM14.24 14.412V13.912H14.74V14.412H14.24ZM14.24 16.452H14.74V16.952H14.24V16.452ZM15.66 18V9.444H16.66V18H15.66ZM16.1583 9.944L8.93434 9.92L8.93766 8.92L16.1617 8.944L16.1583 9.944ZM8.936 9.92C8.03955 9.92 7.47891 10.1106 7.15372 10.3959L6.49428 9.64412C7.08109 9.12938 7.92845 8.92 8.936 8.92V9.92ZM7.14668 10.4019C6.82718 10.6719 6.628 11.1033 6.628 11.796H5.628C5.628 10.9047 5.89282 10.1521 6.50132 9.63806L7.14668 10.4019ZM6.628 11.796C6.628 12.4671 6.84357 12.8733 7.2059 13.1258L6.6341 13.9462C5.94043 13.4627 5.628 12.7089 5.628 11.796H6.628ZM7.15943 13.9749C6.88423 14.1251 6.69986 14.3132 6.5827 14.5364L5.6973 14.0716C5.91614 13.6548 6.25176 13.3309 6.68057 13.0971L7.15943 13.9749ZM6.58024 14.541C6.464 14.7569 6.388 15.0715 6.388 15.516H5.388C5.388 14.9685 5.48 14.4751 5.69976 14.0669L6.58024 14.541ZM6.388 15.516C6.388 16.2261 6.58868 16.691 6.92129 16.9949L6.24671 17.7331C5.65132 17.189 5.388 16.4219 5.388 15.516H6.388ZM6.92098 16.9946C7.24598 17.2911 7.80349 17.488 8.696 17.488V18.488C7.68451 18.488 6.83402 18.2689 6.24702 17.7334L6.92098 16.9946ZM8.6968 17.488L16.1608 17.5L16.1592 18.5L8.6952 18.488L8.6968 17.488ZM9.164 10.456H14.24V11.456H9.164V10.456ZM14.74 10.956V12.876H13.74V10.956H14.74ZM14.24 13.376H9.164V12.376H14.24V13.376ZM9.164 13.376C8.73504 13.376 8.31997 13.2805 8.01029 13.0014C7.69072 12.7135 7.572 12.3113 7.572 11.892H8.572C8.572 12.1287 8.63528 12.2185 8.67971 12.2586C8.73403 12.3075 8.86496 12.376 9.164 12.376V13.376ZM7.572 11.892C7.572 11.4811 7.69546 11.0882 8.0196 10.8104C8.329 10.5452 8.74017 10.456 9.164 10.456V11.456C8.85983 11.456 8.725 11.5228 8.6704 11.5696C8.63054 11.6038 8.572 11.6789 8.572 11.892H7.572ZM8.924 13.912H14.24V14.912H8.924V13.912ZM14.74 14.412V16.452H13.74V14.412H14.74ZM14.24 16.952H8.924V15.952H14.24V16.952ZM8.924 16.952C8.48975 16.952 8.07111 16.8499 7.76157 16.5574C7.44673 16.2599 7.332 15.8485 7.332 15.42H8.332C8.332 15.6795 8.39927 15.7841 8.44843 15.8306C8.50289 15.8821 8.63025 15.952 8.924 15.952V16.952ZM7.332 15.42C7.332 14.9962 7.44864 14.5894 7.76586 14.2966C8.07552 14.0108 8.49242 13.912 8.924 13.912V14.912C8.62758 14.912 8.49848 14.9812 8.44414 15.0314C8.39736 15.0746 8.332 15.1718 8.332 15.42H7.332Z" fill="white"/>
<path d="M19.256 22.06C17.672 22.06 16.46 21.696 15.62 20.968C14.78 20.232 14.36 19.144 14.36 17.704C14.36 16.272 14.78 15.188 15.62 14.452C16.46 13.716 17.672 13.352 19.256 13.36L23.576 13.384V14.92H19.388C18.348 14.92 17.576 15.14 17.072 15.58C16.568 16.02 16.316 16.728 16.316 17.704C16.316 18.68 16.568 19.392 17.072 19.84C17.576 20.28 18.348 20.5 19.388 20.5H23.696V22.06H19.256Z" fill="white"/>
<path d="M15.62 20.968L15.2905 21.3441L15.2925 21.3458L15.62 20.968ZM15.62 14.452L15.2905 14.0759L15.62 14.452ZM19.256 13.36L19.2588 12.86L19.2585 12.86L19.256 13.36ZM23.576 13.384H24.076V12.8868L23.5788 12.884L23.576 13.384ZM23.576 14.92V15.42H24.076V14.92H23.576ZM17.072 15.58L17.4008 15.9567L17.4008 15.9567L17.072 15.58ZM17.072 19.84L16.7398 20.2137L16.7432 20.2167L17.072 19.84ZM23.696 20.5H24.196V20H23.696V20.5ZM23.696 22.06V22.56H24.196V22.06H23.696ZM19.256 21.56C17.7418 21.56 16.6646 21.2116 15.9475 20.5902L15.2925 21.3458C16.2554 22.1804 17.6022 22.56 19.256 22.56V21.56ZM15.9495 20.5919C15.2474 19.9767 14.86 19.0445 14.86 17.704H13.86C13.86 19.2435 14.3126 20.4873 15.2905 21.3441L15.9495 20.5919ZM14.86 17.704C14.86 16.3726 15.2468 15.4438 15.9495 14.8281L15.2905 14.0759C14.3132 14.9322 13.86 16.1714 13.86 17.704H14.86ZM15.9495 14.8281C16.6656 14.2006 17.7409 13.8524 19.2535 13.86L19.2585 12.86C17.6031 12.8516 16.2544 13.2314 15.2905 14.0759L15.9495 14.8281ZM19.2532 13.86L23.5732 13.884L23.5788 12.884L19.2588 12.86L19.2532 13.86ZM23.076 13.384V14.92H24.076V13.384H23.076ZM23.576 14.42H19.388V15.42H23.576V14.42ZM19.388 14.42C18.2911 14.42 17.3771 14.6499 16.7432 15.2033L17.4008 15.9567C17.7749 15.6301 18.4049 15.42 19.388 15.42V14.42ZM16.7432 15.2033C16.0881 15.7752 15.816 16.6513 15.816 17.704H16.816C16.816 16.8047 17.0479 16.2648 17.4008 15.9567L16.7432 15.2033ZM15.816 17.704C15.816 18.7576 16.0885 19.6347 16.7398 20.2137L17.4042 19.4663C17.0475 19.1493 16.816 18.6024 16.816 17.704H15.816ZM16.7432 20.2167C17.3771 20.7701 18.2911 21 19.388 21V20C18.4049 20 17.7749 19.7899 17.4008 19.4633L16.7432 20.2167ZM19.388 21H23.696V20H19.388V21ZM23.196 20.5V22.06H24.196V20.5H23.196ZM23.696 21.56H19.256V22.56H23.696V21.56Z" fill="white"/>
</svg>
